<svg xmlns="http://www.w3.org/2000/svg" viewBox="0 0 317.86 258.95">
  <style>.cls-1{fill:#3b6c70;}.cls-2{fill:#3b6c70;opacity:.34;}.cls-3{fill:#3b6c70;}</style>
  <g>
    <path class="cls-1" d="M56.68,183.25v-1.81l2.93-.66v-19.89l-2.93-.7v-1.81h8.99v1.81l-2.93.7v19.89l2.93.66v1.81h-8.99Z"></path>
    <path class="cls-1" d="M70.47,183.25v-24.87h3.62l13.27,20.59h.14c-.02-.37-.05-.93-.09-1.67-.03-.74-.07-1.56-.1-2.44-.04-.88-.05-1.69-.05-2.44v-14.04h2.93v24.87h-3.66l-13.31-20.66h-.14c.05.53.09,1.17.12,1.9.03.73.07,1.51.1,2.33.04.82.05,1.67.05,2.53v13.9h-2.89Z"></path>
    <path class="cls-1" d="M101.68,183.25v-22.12h-7.77v-2.75h18.64v2.75h-7.73v22.12h-3.13Z"></path>
    <path class="cls-1" d="M116.31,183.25v-24.87h13.9v2.75h-10.76v7.77h10.14v2.72h-10.14v8.88h10.76v2.75h-13.9Z"></path>
    <path class="cls-1" d="M146.34,183.6c-2.58,0-4.75-.52-6.51-1.55-1.77-1.03-3.11-2.51-4.02-4.42-.92-1.92-1.38-4.19-1.38-6.81s.51-4.85,1.53-6.76c1.02-1.9,2.49-3.38,4.41-4.44,1.92-1.06,4.23-1.59,6.95-1.59,1.39,0,2.71.13,3.95.38,1.24.26,2.4.62,3.47,1.08l-1.18,2.72c-.88-.39-1.88-.73-2.98-1.01-1.1-.28-2.25-.42-3.43-.42-1.97,0-3.67.41-5.09,1.22-1.42.81-2.5,1.97-3.24,3.47-.74,1.5-1.11,3.28-1.11,5.35s.32,3.72.96,5.24c.64,1.52,1.64,2.71,3.01,3.55,1.37.85,3.17,1.27,5.4,1.27,1.09,0,2.02-.06,2.79-.17.77-.12,1.46-.26,2.09-.42v-7.39h-5.47v-2.79h8.6v12.19c-1.35.44-2.71.77-4.08.98-1.37.21-2.93.31-4.67.31Z"></path>
    <path class="cls-1" d="M161.04,183.25v-24.87h6.86c2.07,0,3.77.26,5.1.78,1.33.52,2.33,1.31,2.98,2.35.65,1.05.98,2.36.98,3.94,0,1.32-.24,2.43-.73,3.31-.49.88-1.11,1.58-1.86,2.11s-1.55.94-2.39,1.24l6.83,11.15h-3.66l-6.03-10.28h-4.95v10.28h-3.13ZM164.17,170.33h3.73c2.02,0,3.49-.4,4.42-1.2s1.39-1.98,1.39-3.54c0-1.09-.22-1.96-.64-2.61-.43-.65-1.09-1.13-1.97-1.43-.88-.3-2.01-.45-3.38-.45h-3.55v9.23Z"></path>
    <path class="cls-1" d="M179.33,183.25l9.72-24.98h2.82l9.68,24.98h-3.24l-3-7.7h-9.86l-2.96,7.7h-3.17ZM186.5,172.77h7.87l-2.79-7.52c-.07-.19-.19-.52-.35-1.01s-.32-.99-.47-1.51c-.15-.52-.27-.92-.37-1.2-.12.46-.24.94-.37,1.41-.13.48-.26.91-.38,1.31-.13.4-.24.73-.33,1.01l-2.82,7.52Z"></path>
    <path class="cls-1" d="M207.26,183.25v-22.12h-7.77v-2.75h18.64v2.75h-7.73v22.12h-3.13Z"></path>
    <path class="cls-1" d="M221.89,183.25v-24.87h13.9v2.75h-10.76v7.77h10.14v2.72h-10.14v8.88h10.76v2.75h-13.9Z"></path>
    <path class="cls-1" d="M241.26,183.25v-24.87h7.66c2.51,0,4.68.46,6.51,1.39s3.25,2.29,4.25,4.09c1,1.8,1.5,4.04,1.5,6.71s-.52,5.12-1.55,7c-1.03,1.88-2.51,3.3-4.44,4.25-1.93.95-4.26,1.43-7,1.43h-6.93ZM244.4,180.57h3.38c3.37,0,5.89-.83,7.58-2.49,1.68-1.66,2.53-4.13,2.53-7.4s-.82-5.75-2.46-7.3c-1.64-1.54-3.95-2.32-6.95-2.32h-4.08v19.51Z"></path>
  </g>
  <g>
    <path class="cls-1" d="M0,228.54v-33.16h19.23v5.81H7.11v7.25h11.33v5.8H7.11v8.41h12.12v5.9H0Z"></path>
    <path class="cls-1" d="M25.64,228.54v-33.16h9.01l14.26,24.75h.19c-.03-.62-.08-1.42-.14-2.39-.06-.98-.11-2-.14-3.06-.03-1.07-.05-2.02-.05-2.86v-16.44h6.36v33.16h-9.06l-14.31-24.99h-.19c.06.71.12,1.56.16,2.55.05.99.09,2.01.14,3.07.05,1.05.07,2.06.07,3.02v16.35h-6.32Z"></path>
    <path class="cls-1" d="M77.61,229c-3.28,0-6.11-.65-8.5-1.95-2.38-1.3-4.23-3.22-5.53-5.76-1.3-2.54-1.95-5.67-1.95-9.38,0-3.47.67-6.47,2.02-9.01,1.35-2.54,3.3-4.51,5.87-5.9,2.57-1.39,5.71-2.09,9.43-2.09,1.98,0,3.86.19,5.64.56,1.78.37,3.37.87,4.76,1.49l-2.37,5.67c-1.18-.56-2.45-1-3.81-1.32-1.36-.32-2.79-.49-4.27-.49-2.26,0-4.13.49-5.6,1.46-1.47.98-2.56,2.31-3.27,3.99-.71,1.69-1.07,3.61-1.07,5.78s.35,4.22,1.04,5.87c.7,1.66,1.74,2.93,3.14,3.83s3.16,1.35,5.29,1.35c.87,0,1.73-.05,2.6-.16.87-.11,1.58-.24,2.14-.4v-7.01h-6.41v-5.67h13.19v17.23c-1.73.59-3.63,1.05-5.69,1.39-2.06.34-4.28.51-6.67.51Z"></path>
    <path class="cls-1" d="M94.89,228.54v-4.04l4.04-1.35v-22.43l-4.04-1.3v-4.04h15.23v4.04l-4.04,1.3v22.43l4.04,1.35v4.04h-15.23Z"></path>
    <path class="cls-1" d="M115.79,228.54v-33.16h9.01l14.26,24.75h.19c-.03-.62-.08-1.42-.14-2.39-.06-.98-.11-2-.14-3.06-.03-1.07-.05-2.02-.05-2.86v-16.44h6.36v33.16h-9.06l-14.31-24.99h-.18c.06.71.12,1.56.16,2.55.05.99.09,2.01.14,3.07.05,1.05.07,2.06.07,3.02v16.35h-6.32Z"></path>
    <path class="cls-1" d="M153.17,228.54v-33.16h19.23v5.81h-12.12v7.25h11.33v5.8h-11.33v8.41h12.12v5.9h-19.23Z"></path>
    <path class="cls-1" d="M178.81,228.54v-33.16h19.23v5.81h-12.12v7.25h11.33v5.8h-11.33v8.41h12.12v5.9h-19.23Z"></path>
    <path class="cls-1" d="M204.45,228.54v-33.16h10.17c2.91,0,5.32.36,7.25,1.09,1.92.73,3.35,1.8,4.3,3.23.94,1.42,1.42,3.21,1.42,5.34,0,1.49-.26,2.8-.79,3.95-.53,1.15-1.24,2.12-2.14,2.93-.9.81-1.92,1.47-3.07,2l9.43,14.63h-8.13l-7.39-12.73h-3.95v12.73h-7.11ZM211.55,210.33h2.93c1.89,0,3.34-.39,4.37-1.16,1.02-.77,1.53-2.04,1.53-3.81,0-.99-.21-1.81-.63-2.46-.42-.65-1.06-1.15-1.93-1.49-.87-.34-1.98-.51-3.34-.51h-2.93v9.43Z"></path>
    <path class="cls-1" d="M232.64,228.54v-4.04l4.04-1.35v-22.43l-4.04-1.3v-4.04h15.23v4.04l-4.04,1.3v22.43l4.04,1.35v4.04h-15.23Z"></path>
    <path class="cls-1" d="M253.54,228.54v-33.16h9.01l14.26,24.75h.19c-.03-.62-.08-1.42-.14-2.39-.06-.98-.11-2-.14-3.06-.03-1.07-.05-2.02-.05-2.86v-16.44h6.36v33.16h-9.06l-14.31-24.99h-.18c.06.71.12,1.56.16,2.55.05.99.09,2.01.14,3.07.05,1.05.07,2.06.07,3.02v16.35h-6.32Z"></path>
    <path class="cls-1" d="M305.51,229c-3.28,0-6.12-.65-8.5-1.95-2.38-1.3-4.23-3.22-5.53-5.76-1.3-2.54-1.95-5.67-1.95-9.38,0-3.47.67-6.47,2.02-9.01s3.31-4.51,5.88-5.9c2.57-1.39,5.71-2.09,9.43-2.09,1.98,0,3.86.19,5.64.56,1.78.37,3.37.87,4.76,1.49l-2.37,5.67c-1.18-.56-2.45-1-3.81-1.32-1.36-.32-2.79-.49-4.27-.49-2.26,0-4.13.49-5.6,1.46-1.47.98-2.56,2.31-3.27,3.99-.71,1.69-1.07,3.61-1.07,5.78s.35,4.22,1.05,5.87c.7,1.66,1.74,2.93,3.13,3.83,1.39.9,3.16,1.35,5.29,1.35.87,0,1.73-.05,2.6-.16.87-.11,1.58-.24,2.14-.4v-7.01h-6.41v-5.67h13.19v17.23c-1.73.59-3.63,1.05-5.69,1.39-2.06.34-4.28.51-6.66.51Z"></path>
  </g>
  <g>
    <path class="cls-1" d="M102.85,136.61c15.8-.81,33.14-1.49,49.01-1.95,16.37-.93,32.82-1.09,49.01,1.95v.56c-4.08.8-8.17,1.29-12.25,1.68-12.24,1.37-24.5.89-36.76.27-6.1-.17-18.41-.59-24.51-.84-8.17-.37-16.34-.67-24.51-1.11v-.56Z"></path>
    <g>
      <g>
        <polygon class="cls-3" points="89.35 54.7 99.82 74.58 154.52 19.88 144.06 0 89.35 54.7"></polygon>
        <polygon class="cls-3" points="157.08 71.44 173.23 55.3 157.27 25.08 102.56 79.79 118.49 110.04 134.63 93.89 129.17 83.52 132.68 80.02 138.14 90.39 153.58 74.94 148.12 64.57 151.62 61.07 157.08 71.44"></polygon>
      </g>
      <g>
        <polygon class="cls-1" points="157.08 71.44 166.58 76.45 182.73 60.31 173.23 55.3 157.08 71.44"></polygon>
        <polygon class="cls-1" points="138.14 90.39 147.63 95.4 163.08 79.96 153.58 74.94 138.14 90.39"></polygon>
        <polygon class="cls-1" points="118.49 110.04 127.98 115.05 144.13 98.91 134.63 93.89 118.49 110.04"></polygon>
        <polygon class="cls-1" points="212.37 100.62 228.51 84.48 187.89 63.09 152.84 98.15 172.7 108.63 169.19 112.14 149.37 101.68 133.23 117.82 173.77 139.22 208.86 104.13 188.14 93.19 191.64 89.68 212.37 100.62"></polygon>
      </g>
      <polygon class="cls-2" points="177.76 50.76 177.79 50.8 177.74 50.78 177.72 50.73 177.76 50.76"></polygon>
      <polygon class="cls-3" points="212.72 67.24 196.83 58.89 187.46 41.06 169.63 31.69 161.28 15.8 195.01 33.51 212.72 67.24"></polygon>
    </g>
  </g>
  <g>
    <path class="cls-1" d="M60.47,258.95c-.62,0-1.21-.03-1.78-.09-.57-.06-1.08-.15-1.54-.27s-.88-.26-1.23-.43v-2c.56.25,1.25.47,2.08.67.83.2,1.68.3,2.56.3.82,0,1.51-.11,2.07-.33.56-.22.98-.53,1.25-.93.28-.4.42-.87.42-1.42s-.12-1-.35-1.37-.63-.72-1.2-1.03c-.57-.32-1.35-.65-2.36-1.01-.94-.34-1.73-.73-2.37-1.16-.63-.43-1.11-.96-1.43-1.57-.32-.61-.48-1.34-.48-2.19s.22-1.64.67-2.26c.45-.63,1.07-1.11,1.87-1.45.8-.34,1.71-.51,2.75-.51.91,0,1.75.09,2.51.26.76.17,1.45.39,2.07.67l-.65,1.79c-.57-.25-1.2-.46-1.87-.63-.67-.17-1.37-.26-2.1-.26s-1.28.1-1.74.3c-.46.2-.81.48-1.04.85-.23.36-.35.79-.35,1.27,0,.56.12,1.02.35,1.39.23.37.61.7,1.14,1,.53.29,1.24.61,2.14.95.98.36,1.8.74,2.47,1.15s1.18.9,1.53,1.47c.35.57.52,1.29.52,2.16,0,.99-.24,1.83-.72,2.52-.48.69-1.16,1.22-2.05,1.59-.89.37-1.94.56-3.15.56Z"></path>
    <path class="cls-1" d="M91.35,258.72v-6.34l-5.53-10.24h2.28l4.29,8.15,4.32-8.15h2.25l-5.53,10.15v6.43h-2.09Z"></path>
    <path class="cls-1" d="M123.04,258.95c-.62,0-1.21-.03-1.78-.09-.57-.06-1.08-.15-1.54-.27s-.88-.26-1.23-.43v-2c.56.25,1.25.47,2.08.67.83.2,1.68.3,2.56.3.82,0,1.51-.11,2.07-.33.56-.22.98-.53,1.25-.93.28-.4.42-.87.42-1.42s-.12-1-.35-1.37-.63-.72-1.2-1.03c-.57-.32-1.35-.65-2.36-1.01-.94-.34-1.73-.73-2.37-1.16-.63-.43-1.11-.96-1.43-1.57-.32-.61-.48-1.34-.48-2.19s.22-1.64.67-2.26c.45-.63,1.07-1.11,1.87-1.45.8-.34,1.71-.51,2.75-.51.91,0,1.75.09,2.51.26.76.17,1.45.39,2.07.67l-.65,1.79c-.57-.25-1.2-.46-1.87-.63-.67-.17-1.37-.26-2.1-.26s-1.28.1-1.74.3c-.46.2-.81.48-1.04.85-.23.36-.35.79-.35,1.27,0,.56.12,1.02.35,1.39.23.37.61.7,1.14,1,.53.29,1.24.61,2.14.95.98.36,1.8.74,2.47,1.15s1.18.9,1.53,1.47c.35.57.52,1.29.52,2.16,0,.99-.24,1.83-.72,2.52-.48.69-1.16,1.22-2.05,1.59-.89.37-1.94.56-3.15.56Z"></path>
    <path class="cls-1" d="M153.8,258.72v-14.74h-5.18v-1.83h12.42v1.83h-5.15v14.74h-2.09Z"></path>
    <path class="cls-1" d="M181.89,258.72v-16.58h9.26v1.83h-7.17v5.18h6.76v1.81h-6.76v5.92h7.17v1.83h-9.26Z"></path>
    <path class="cls-1" d="M213.14,258.72v-16.58h3.09l5.11,13.58h.09l5.2-13.58h3.06v16.58h-2.07v-10.19c0-.54,0-1.08.02-1.61s.04-1.04.07-1.51c.03-.47.05-.87.07-1.2h-.09l-5.53,14.51h-1.72l-5.46-14.53h-.09c.03.31.06.7.08,1.18.02.48.04,1,.06,1.57.02.57.02,1.14.02,1.73v10.05h-1.93Z"></path>
    <path class="cls-1" d="M256.02,258.95c-.62,0-1.21-.03-1.78-.09-.57-.06-1.08-.15-1.54-.27s-.88-.26-1.23-.43v-2c.56.25,1.25.47,2.08.67.83.2,1.68.3,2.56.3.82,0,1.51-.11,2.07-.33.56-.22.98-.53,1.25-.93.28-.4.42-.87.42-1.42s-.12-1-.35-1.37-.63-.72-1.2-1.03c-.57-.32-1.35-.65-2.36-1.01-.94-.34-1.73-.73-2.37-1.16-.63-.43-1.11-.96-1.43-1.57-.32-.61-.48-1.34-.48-2.19s.22-1.64.67-2.26c.45-.63,1.07-1.11,1.87-1.45.8-.34,1.71-.51,2.75-.51.91,0,1.75.09,2.51.26.76.17,1.45.39,2.07.67l-.65,1.79c-.57-.25-1.2-.46-1.87-.63-.67-.17-1.37-.26-2.1-.26s-1.28.1-1.74.3c-.46.2-.81.48-1.04.85-.23.36-.35.79-.35,1.27,0,.56.12,1.02.35,1.39.23.37.61.7,1.14,1,.53.29,1.24.61,2.14.95.98.36,1.8.74,2.47,1.15s1.18.9,1.53,1.47c.35.57.52,1.29.52,2.16,0,.99-.24,1.83-.72,2.52-.48.69-1.16,1.22-2.05,1.59-.89.37-1.94.56-3.15.56Z"></path>
  </g>
</svg>