<svg xmlns="http://www.w3.org/2000/svg" viewBox="85 -6 150 152">
  <style>
    .ic-1 { fill: #3b6c70; }
    .ic-2 { fill: #3b6c70; opacity: .34; }
    .ic-3 { fill: #3b6c70; }
  </style>
  <path class="ic-3" d="M102.85,136.61c15.8-.81,33.14-1.49,49.01-1.95,16.37-.93,32.82-1.09,49.01,1.95v.56c-4.08.8-8.17,1.29-12.25,1.68-12.24,1.37-24.5.89-36.76.27-6.1-.17-18.41-.59-24.51-.84-8.17-.37-16.34-.67-24.51-1.11v-.56Z"/>
  <polygon class="ic-1" points="89.35 54.7 99.82 74.58 154.52 19.88 144.06 0 89.35 54.7"/>
  <polygon class="ic-1" points="157.08 71.44 173.23 55.3 157.27 25.08 102.56 79.79 118.49 110.04 134.63 93.89 129.17 83.52 132.68 80.02 138.14 90.39 153.58 74.94 148.12 64.57 151.62 61.07 157.08 71.44"/>
  <polygon class="ic-3" points="157.08 71.44 166.58 76.45 182.73 60.31 173.23 55.3 157.08 71.44"/>
  <polygon class="ic-3" points="138.14 90.39 147.63 95.4 163.08 79.96 153.58 74.94 138.14 90.39"/>
  <polygon class="ic-3" points="118.49 110.04 127.98 115.05 144.13 98.91 134.63 93.89 118.49 110.04"/>
  <polygon class="ic-3" points="212.37 100.62 228.51 84.48 187.89 63.09 152.84 98.15 172.7 108.63 169.19 112.14 149.37 101.68 133.23 117.82 173.77 139.22 208.86 104.13 188.14 93.19 191.64 89.68 212.37 100.62"/>
  <polygon class="ic-2" points="177.76 50.76 177.79 50.8 177.74 50.78 177.72 50.73 177.76 50.76"/>
  <polygon class="ic-1" points="212.72 67.24 196.83 58.89 187.46 41.06 169.63 31.69 161.28 15.8 195.01 33.51 212.72 67.24"/>
</svg>
