<svg xmlns="http://www.w3.org/2000/svg" viewBox="0 0 480 192">
  <style>.cls-1{fill:#3b6c70;}</style>
  <polygon class="cls-1" points="84.51 37 84.51 34.34 88.93 33.37 88.93 4.19 84.51 3.17 84.51 .51 98.08 .51 98.08 3.17 93.66 4.19 93.66 33.37 98.08 34.34 98.08 37 84.51 37"></polygon>
  <path class="cls-1" d="M105.34,37V.51h5.47l20.04,30.2h.21c-.03-.54-.08-1.36-.13-2.45-.05-1.09-.11-2.28-.16-3.58-.05-1.29-.08-2.49-.08-3.58V.51h4.42v36.48h-5.52l-20.09-30.3h-.21c.07.78.13,1.71.18,2.78.05,1.07.1,2.22.16,3.42.05,1.21.08,2.45.08,3.71v20.39h-4.37Z"></path>
  <polygon class="cls-1" points="152.47 37 152.47 4.55 140.74 4.55 140.74 .51 168.88 .51 168.88 4.55 157.21 4.55 157.21 37 152.47 37"></polygon>
  <polygon class="cls-1" points="174.57 37 174.57 .51 195.55 .51 195.55 4.55 179.3 4.55 179.3 15.94 194.61 15.94 194.61 19.93 179.3 19.93 179.3 32.96 195.55 32.96 195.55 37 174.57 37"></polygon>
  <g>
    <path class="cls-1" d="M219.91,37.51c-3.89,0-7.17-.76-9.84-2.27-2.67-1.52-4.69-3.68-6.08-6.49-1.39-2.81-2.08-6.14-2.08-9.99s.77-7.12,2.32-9.91c1.54-2.79,3.76-4.96,6.65-6.51,2.89-1.55,6.39-2.33,10.49-2.33,2.1,0,4.09.19,5.97.56,1.88.37,3.62.9,5.23,1.58l-1.79,3.98c-1.33-.58-2.83-1.07-4.5-1.48-1.67-.41-3.39-.61-5.18-.61-2.98,0-5.54.6-7.68,1.79-2.14,1.19-3.77,2.89-4.89,5.08-1.12,2.2-1.68,4.81-1.68,7.84s.48,5.46,1.45,7.69c.96,2.23,2.48,3.97,4.55,5.21,2.07,1.24,4.79,1.87,8.15,1.87,1.65,0,3.05-.09,4.21-.26,1.16-.17,2.21-.38,3.16-.61v-10.83h-8.26v-4.09h12.99v17.89c-2.03.65-4.09,1.12-6.15,1.43-2.07.31-4.42.46-7.05.46"></path>
    <path class="cls-1" d="M246.84,18.04h5.63c3.05,0,5.28-.59,6.68-1.76,1.4-1.18,2.1-2.9,2.1-5.19,0-1.6-.33-2.88-.97-3.83-.65-.95-1.64-1.65-2.97-2.09s-3.03-.66-5.1-.66h-5.37v13.54ZM242.1,37V.51h10.36c3.12,0,5.69.38,7.71,1.15,2.02.77,3.51,1.92,4.5,3.45.98,1.53,1.47,3.46,1.47,5.77,0,1.94-.37,3.56-1.1,4.86-.74,1.29-1.68,2.33-2.82,3.09-1.14.77-2.34,1.37-3.6,1.81l10.31,16.35h-5.52l-9.1-15.07h-7.47v15.07h-4.73Z"></path>
    <path class="cls-1" d="M280.56,21.62h11.89l-4.21-11.04c-.1-.27-.28-.77-.52-1.48-.25-.72-.48-1.46-.71-2.22-.23-.77-.41-1.36-.55-1.76-.18.68-.36,1.37-.55,2.07-.19.7-.39,1.34-.58,1.92-.19.58-.36,1.07-.5,1.48l-4.26,11.04ZM269.72,37L284.39.36h4.26l14.62,36.64h-4.89l-4.52-11.29h-14.89l-4.47,11.29h-4.79Z"></path>
  </g>
  <polygon class="cls-1" points="311.91 37 311.91 4.55 300.18 4.55 300.18 .51 328.32 .51 328.32 4.55 316.64 4.55 316.64 37 311.91 37"></polygon>
  <polygon class="cls-1" points="334 37 334 .51 354.99 .51 354.99 4.55 338.73 4.55 338.73 15.94 354.04 15.94 354.04 19.93 338.73 19.93 338.73 32.96 354.99 32.96 354.99 37 334 37"></polygon>
  <path class="cls-1" d="M367.98,33.06h5.1c5.08,0,8.9-1.22,11.44-3.65,2.54-2.43,3.81-6.06,3.81-10.86s-1.24-8.44-3.71-10.71c-2.47-2.27-5.97-3.4-10.49-3.4h-6.15v28.62ZM363.24,37V.51h11.57c3.79,0,7.07.68,9.84,2.04,2.77,1.36,4.91,3.36,6.42,6,1.51,2.64,2.26,5.92,2.26,9.84s-.78,7.51-2.34,10.27c-1.56,2.76-3.8,4.84-6.71,6.23-2.91,1.4-6.44,2.09-10.57,2.09h-10.47Z"></path>
  <polygon class="cls-1" points="0 103.43 0 54.78 29.04 54.78 29.04 63.3 10.73 63.3 10.73 73.93 27.84 73.93 27.84 82.44 10.73 82.44 10.73 94.77 29.04 94.77 29.04 103.43 0 103.43"></polygon>
  <g>
    <path class="cls-1" d="M38.71,103.43v-48.65h13.61l21.53,36.31h.28c-.05-.91-.12-2.08-.21-3.51-.09-1.43-.16-2.93-.21-4.5-.05-1.57-.07-2.96-.07-4.19v-24.12h9.61v48.65h-13.67l-21.6-36.66h-.28c.09,1.04.17,2.29.24,3.75.07,1.45.14,2.95.21,4.5.07,1.55.11,3.02.11,4.43v23.98h-9.54Z"></path>
    <path class="cls-1" d="M117.19,104.11c-4.96,0-9.24-.95-12.84-2.86-3.6-1.91-6.38-4.72-8.35-8.45-1.96-3.72-2.95-8.31-2.95-13.76,0-5.09,1.02-9.49,3.05-13.22,2.03-3.73,4.99-6.61,8.87-8.65,3.88-2.04,8.63-3.07,14.24-3.07,2.99,0,5.83.27,8.52.82,2.69.55,5.08,1.27,7.19,2.18l-3.58,8.31c-1.78-.82-3.69-1.47-5.75-1.94-2.06-.48-4.21-.72-6.45-.72-3.41,0-6.23.72-8.45,2.15-2.22,1.43-3.87,3.38-4.94,5.86-1.08,2.48-1.61,5.3-1.61,8.48s.52,6.19,1.58,8.62c1.05,2.43,2.63,4.3,4.73,5.62,2.1,1.32,4.77,1.98,7.99,1.98,1.31,0,2.62-.08,3.93-.24,1.31-.16,2.39-.35,3.23-.58v-10.29h-9.68v-8.31h19.92v25.28c-2.62.86-5.48,1.54-8.59,2.04-3.11.5-6.46.75-10.06.75"></path>
  </g>
  <polygon class="cls-1" points="143.29 103.43 143.29 97.5 149.39 95.52 149.39 62.61 143.29 60.71 143.29 54.78 166.29 54.78 166.29 60.71 160.19 62.61 160.19 95.52 166.29 97.5 166.29 103.43 143.29 103.43"></polygon>
  <path class="cls-1" d="M174.85,103.43v-48.65h13.61l21.53,36.31h.28c-.05-.91-.12-2.08-.21-3.51-.09-1.43-.16-2.93-.21-4.5-.05-1.57-.07-2.96-.07-4.19v-24.12h9.61v48.65h-13.67l-21.6-36.66h-.28c.09,1.04.17,2.29.24,3.75.07,1.45.14,2.95.21,4.5.07,1.55.11,3.02.11,4.43v23.98h-9.54Z"></path>
  <polygon class="cls-1" points="231.3 103.43 231.3 54.78 260.34 54.78 260.34 63.3 242.03 63.3 242.03 73.93 259.15 73.93 259.15 82.44 242.03 82.44 242.03 94.77 260.34 94.77 260.34 103.43 231.3 103.43"></polygon>
  <polygon class="cls-1" points="270.02 103.43 270.02 54.78 299.05 54.78 299.05 63.3 280.75 63.3 280.75 73.93 297.86 73.93 297.86 82.44 280.75 82.44 280.75 94.77 299.05 94.77 299.05 103.43 270.02 103.43"></polygon>
  <path class="cls-1" d="M319.46,76.72h4.42c2.85,0,5.05-.57,6.59-1.7,1.54-1.14,2.31-3,2.31-5.59,0-1.45-.32-2.66-.95-3.61-.63-.96-1.6-1.68-2.91-2.18-1.31-.5-2.99-.75-5.05-.75h-4.42v13.83ZM308.73,103.43v-48.65h15.36c4.4,0,8.04.53,10.94,1.6,2.9,1.07,5.06,2.65,6.49,4.73,1.43,2.09,2.14,4.7,2.14,7.84,0,2.18-.4,4.11-1.19,5.79-.8,1.68-1.87,3.11-3.23,4.29-1.36,1.18-2.9,2.16-4.63,2.93l14.24,21.46h-12.27l-11.15-18.67h-5.96v18.67h-10.73Z"></path>
  <polygon class="cls-1" points="351.3 103.43 351.3 97.5 357.41 95.52 357.41 62.61 351.3 60.71 351.3 54.78 374.31 54.78 374.31 60.71 368.21 62.61 368.21 95.52 374.31 97.5 374.31 103.43 351.3 103.43"></polygon>
  <g>
    <path class="cls-1" d="M382.86,103.43v-48.65h13.61l21.53,36.31h.28c-.05-.91-.12-2.08-.21-3.51-.09-1.43-.16-2.93-.21-4.5-.05-1.57-.07-2.96-.07-4.19v-24.12h9.61v48.65h-13.67l-21.6-36.66h-.28c.09,1.04.17,2.29.24,3.75.07,1.45.14,2.95.21,4.5.07,1.55.11,3.02.11,4.43v23.98h-9.54Z"></path>
    <path class="cls-1" d="M461.34,104.11c-4.96,0-9.24-.95-12.84-2.86-3.6-1.91-6.38-4.72-8.35-8.45-1.96-3.72-2.95-8.31-2.95-13.76,0-5.09,1.02-9.49,3.05-13.22,2.03-3.73,4.99-6.61,8.87-8.65,3.88-2.04,8.63-3.07,14.24-3.07,2.99,0,5.83.27,8.52.82,2.69.55,5.08,1.27,7.19,2.18l-3.58,8.31c-1.78-.82-3.69-1.47-5.75-1.94-2.06-.48-4.21-.72-6.45-.72-3.41,0-6.23.72-8.45,2.15-2.22,1.43-3.87,3.38-4.94,5.86-1.08,2.48-1.61,5.3-1.61,8.48s.53,6.19,1.58,8.62c1.05,2.43,2.63,4.3,4.73,5.62,2.1,1.32,4.77,1.98,7.99,1.98,1.31,0,2.62-.08,3.93-.24,1.31-.16,2.39-.35,3.23-.58v-10.29h-9.68v-8.31h19.92v25.28c-2.62.86-5.48,1.54-8.59,2.04-3.11.5-6.46.75-10.06.75"></path>
    <path class="cls-1" d="M95.89,148.05c-.94,0-1.83-.05-2.68-.14-.85-.09-1.63-.22-2.33-.39-.7-.17-1.32-.38-1.86-.63v-2.93c.84.36,1.89.69,3.14.99,1.25.29,2.54.44,3.88.44,1.24,0,2.28-.16,3.12-.48.84-.32,1.47-.77,1.89-1.36.42-.59.63-1.28.63-2.08s-.18-1.47-.53-2.01c-.35-.55-.95-1.05-1.81-1.52-.85-.46-2.04-.96-3.56-1.48-1.43-.5-2.62-1.07-3.58-1.71-.96-.63-1.68-1.4-2.16-2.3-.48-.9-.72-1.97-.72-3.22s.34-2.4,1.02-3.32c.68-.92,1.62-1.63,2.82-2.13,1.2-.5,2.59-.75,4.15-.75,1.38,0,2.64.13,3.79.38,1.15.25,2.19.58,3.12.99l-.98,2.62c-.86-.36-1.81-.67-2.82-.92-1.02-.25-2.08-.38-3.17-.38s-1.93.15-2.63.44c-.7.3-1.23.71-1.58,1.24-.35.53-.53,1.15-.53,1.86,0,.82.18,1.5.53,2.04.35.54.92,1.03,1.72,1.46.8.43,1.87.9,3.23,1.4,1.47.52,2.72,1.08,3.74,1.69,1.02.6,1.79,1.32,2.31,2.16.53.84.79,1.9.79,3.17,0,1.45-.36,2.69-1.09,3.7-.72,1.01-1.76,1.79-3.1,2.33-1.35.55-2.93.82-4.75.82"></path>
  </g>
  <polygon class="cls-1" points="149.9 147.71 149.9 138.41 141.55 123.39 144.99 123.39 151.47 135.35 158 123.39 161.4 123.39 153.05 138.28 153.05 147.71 149.9 147.71"></polygon>
  <path class="cls-1" d="M205.13,148.05c-.94,0-1.83-.05-2.68-.14-.85-.09-1.63-.22-2.33-.39-.7-.17-1.32-.38-1.86-.63v-2.93c.84.36,1.89.69,3.14.99,1.25.29,2.54.44,3.88.44,1.24,0,2.28-.16,3.12-.48.84-.32,1.47-.77,1.89-1.36.42-.59.63-1.28.63-2.08s-.18-1.47-.53-2.01c-.35-.55-.95-1.05-1.81-1.52-.85-.46-2.04-.96-3.56-1.48-1.43-.5-2.62-1.07-3.58-1.71-.96-.63-1.68-1.4-2.16-2.3-.48-.9-.72-1.97-.72-3.22s.34-2.4,1.02-3.32c.68-.92,1.62-1.63,2.82-2.13,1.2-.5,2.59-.75,4.15-.75,1.38,0,2.64.13,3.79.38,1.15.25,2.19.58,3.12.99l-.98,2.62c-.86-.36-1.81-.67-2.82-.92-1.02-.25-2.08-.38-3.17-.38s-1.93.15-2.63.44c-.7.3-1.23.71-1.58,1.24-.35.53-.53,1.15-.53,1.86,0,.82.18,1.5.53,2.04.35.54.92,1.03,1.72,1.46.79.43,1.87.9,3.23,1.4,1.47.52,2.72,1.08,3.74,1.69,1.02.6,1.79,1.32,2.31,2.16.53.84.79,1.9.79,3.17,0,1.45-.36,2.69-1.09,3.7-.72,1.01-1.76,1.79-3.1,2.33-1.34.55-2.93.82-4.75.82"></path>
  <polygon class="cls-1" points="258.95 147.71 258.95 126.08 251.13 126.08 251.13 123.39 269.9 123.39 269.9 126.08 262.11 126.08 262.11 147.71 258.95 147.71"></polygon>
  <polygon class="cls-1" points="308.75 147.71 308.75 123.39 322.74 123.39 322.74 126.08 311.91 126.08 311.91 133.68 322.11 133.68 322.11 136.34 311.91 136.34 311.91 145.02 322.74 145.02 322.74 147.71 308.75 147.71"></polygon>
  <path class="cls-1" d="M363.31,147.71v-24.32h4.66l7.71,19.93h.14l7.85-19.93h4.63v24.32h-3.12v-14.95c0-.8.01-1.58.04-2.37.02-.78.06-1.52.1-2.22.05-.69.08-1.28.1-1.75h-.14l-8.35,21.29h-2.6l-8.24-21.32h-.14c.05.45.09,1.03.12,1.74s.06,1.47.09,2.3c.02.83.03,1.68.03,2.54v14.75h-2.91Z"></path>
  <rect class="cls-1" x="106.32" y="180.76" width="9.22" height="4.22"></rect>
  <path class="cls-1" d="M168.74,187.88h3.4c1.59,0,2.69-.31,3.31-.94.62-.62.93-1.42.93-2.4,0-.61-.13-1.16-.4-1.64-.27-.48-.73-.86-1.37-1.14-.64-.28-1.52-.43-2.65-.43h-3.23v6.54ZM168.74,177.42h3.02c1.54,0,2.61-.27,3.19-.82.59-.55.88-1.26.88-2.15,0-.93-.35-1.62-1.03-2.06-.69-.44-1.78-.66-3.28-.66h-2.77v5.69ZM163.38,192v-24.32h8.1c3.44,0,5.94.49,7.51,1.48,1.57.99,2.35,2.52,2.35,4.58,0,1.02-.19,1.9-.58,2.64-.39.74-.9,1.34-1.54,1.79-.64.46-1.35.76-2.12.92v.17c.82.16,1.6.44,2.35.85.75.41,1.36,1,1.82,1.77.47.77.7,1.79.7,3.06,0,1.48-.37,2.74-1.12,3.8-.75,1.06-1.8,1.86-3.17,2.42s-3.01.83-4.93.83h-9.36Z"></path>
  <polygon class="cls-1" points="228.81 192 228.81 189.04 231.86 188.05 231.86 171.59 228.81 170.64 228.81 167.68 240.32 167.68 240.32 170.64 237.27 171.59 237.27 188.05 240.32 189.04 240.32 192 228.81 192"></polygon>
  <path class="cls-1" d="M288.43,192v-24.32h7.29l6.21,18.29h.14l6.21-18.29h7.29v24.32h-5.01v-12.33c0-.79.01-1.61.04-2.44.02-.83.06-1.62.1-2.37.05-.75.08-1.36.11-1.84h-.14l-6.35,18.98h-4.95l-6.31-19.01h-.14c.05.45.09,1.06.12,1.81.04.75.07,1.56.11,2.43.03.88.05,1.73.05,2.57v12.2h-4.77Z"></path>
  <rect class="cls-1" x="363.37" y="180.76" width="9.22" height="4.22"></rect>
</svg>